<?xml version="1.0" encoding="UTF-8" standalone="no"?>
<!-- Created with Inkscape (http://www.inkscape.org/) -->
<!-- Created by Jurgen Forster -->
<svg xmlns:dc="http://purl.org/dc/elements/1.1/" 
  xmlns:cc="http://creativecommons.org/ns#" 
  xmlns:rdf="http://www.w3.org/1999/02/22-rdf-syntax-ns#" 
  xmlns:svg="http://www.w3.org/2000/svg" 
  xmlns="http://www.w3.org/2000/svg" 
  xmlns:sodipodi="http://sodipodi.sourceforge.net/DTD/sodipodi-0.dtd" 
  xmlns:inkscape="http://www.inkscape.org/namespaces/inkscape" width="793.70081" height="793.70081" viewBox="0 0 210 210" version="1.1" id="svg1244" inkscape:version="0.92.3 (2405546, 2018-03-11)" sodipodi:docname="DCUG_logo.svg">
  <defs id="defs1238" />
  <sodipodi:namedview id="base" pagecolor="#ffffff" bordercolor="#666666" borderopacity="1.0" inkscape:pageopacity="0.0" inkscape:pageshadow="2" inkscape:zoom="1" inkscape:cx="369.73799" inkscape:cy="76.490482" inkscape:document-units="mm" inkscape:current-layer="layer1" showgrid="false" units="px" inkscape:window-width="3840" inkscape:window-height="2004" inkscape:window-x="-16" inkscape:window-y="-16" inkscape:window-maximized="1" />
  <metadata id="metadata1241">
    <rdf:RDF>
      <cc:Work rdf:about="">
        <dc:format>image/svg+xml</dc:format>
        <dc:type rdf:resource="http://purl.org/dc/dcmitype/StillImage" />
        <dc:title></dc:title>
      </cc:Work>
    </rdf:RDF>
  </metadata>
  <g inkscape:label="Layer 1" inkscape:groupmode="layer" id="layer1" transform="translate(0,-87)">
    <g id="g6046" transform="matrix(0.20913831,0,0,0.21328931,53.725984,136.82301)">
      <title id="title5980">logo</title>
      <ellipse id="ellipse5982" ry="249.591" rx="250.14799" cy="264.45999" cx="243.748" style="fill:#67f7b2;stroke-width:0" />
      <ellipse id="ellipse5984" style="fill:#ffffff" ry="85.708" rx="81.105003" cy="310.02899" cx="127.623" />
      <ellipse id="ellipse5986" style="fill:#ffffff" ry="85.708" rx="81.105003" cy="306.004" cx="349.74399" />
      <polygon id="polygon5988" points="327.757,373.468 291.725,347.032 287.001,268.312 307.083,245.989 299.404,214.266 323.031,160.807 275.188,115.572 206.67,116.16 157.055,168.444 181.272,216.616 173.003,246.576 196.629,271.249 195.448,348.207 152.33,380.517 122.205,396.379 116.3,406.366 112.756,416.94 113.937,467.461 144.06,483.323 175.366,495.66 212.577,504.471 252.152,508.584 287.591,503.884 320.079,496.835 346.658,486.848 377.372,469.811 377.372,425.164 374.419,408.128 367.331,392.854 342.523,381.105 " style="fill:#7cc9e5;stroke-width:0" />
      <polygon id="polygon5990" points="184.192,186.793 178.93,192.429 176.704,186.592 177.514,169.283 183.383,160.629 194.311,153.786 216.165,153.383 232.759,164.855 234.378,168.478 233.772,179.346 218.189,194.24 195.524,194.643 184.394,186.391 " style="opacity:0.22000002;fill:#5a61e6;stroke:#000000;stroke-width:0" />
      <polygon id="polygon5992" transform="rotate(180,277.4275,172.29499)" points="256.239,159.515 251.017,153.879 248.808,159.716 249.611,177.025 255.436,185.679 266.282,192.522 287.972,192.925 304.44,181.453 306.047,177.83 305.446,166.962 289.98,152.068 267.486,151.665 256.44,159.917 " style="opacity:0.22000002;fill:#5a61e6;stroke:#000000;stroke-width:0" />
      <polygon id="polygon5994" points="229.333,181.897 229.686,183.929 227.732,185.756 217.956,193.942 195.499,194.352 184.443,186.683 197.194,169.34 213.773,169.048 227.406,180.375 " style="fill:#e4eef2;stroke:#000000;stroke-width:0" />
      <polygon id="polygon5996" transform="rotate(180,277.04849,180.61651)" points="297.793,178.869 297.793,177.279 296.425,175.446 286.38,167.881 267.114,167.931 256.304,176.732 268.127,192.701 285.478,193.352 296.466,180.173 " style="fill:#e4eef2;stroke:#000000;stroke-width:0" />
      <polygon id="polygon5998" points="215.781,168.657 227.847,179.224 227.125,180.478 214.339,169.373 196.331,170.448 184.266,187.104 178.864,192.298 180.485,188.179 195.972,169.015 " style="fill:#2a4285;stroke:#000000;stroke-width:0" />
      <polygon id="polygon6000" transform="rotate(180,280.54107,178.94251)" points="293.978,190.763 303.743,178.385 303.228,176.728 292.546,190.047 274.675,188.972 262.7,172.316 257.339,167.122 258.947,171.241 274.317,190.405 " style="fill:#2a4285;stroke:#000000;stroke-width:0" />
      <polygon id="polygon6002" points="197.142,194.24 217.178,194.039 220.01,185.183 219.807,177.938 215.356,170.289 214.141,169.484 196.333,170.491 194.512,172.906 192.691,179.548 193.096,186.793 " style="fill:#477bbf;stroke:#000000;stroke-width:0" />
      <polygon id="polygon6004" transform="rotate(180,276.62395,180.65499)" points="267.486,167.976 286.365,167.975 290.181,176.831 289.98,184.881 285.362,192.731 284.356,193.335 266.682,192.328 264.875,189.913 263.067,183.271 263.469,176.026 " style="fill:#477bbf;stroke:#000000;stroke-width:0" />
      <polygon id="polygon6006" points="196.544,274.709 193.369,352.611 124.568,396.826 224.064,386.298 207.129,377.876 " style="fill:#477bbf;stroke:#2751ce;stroke-width:0" />
      <polygon id="polygon6008" transform="rotate(180,311.40306,329.977)" points="334.515,390.509 331.363,312.607 260.979,269.445 361.827,278.92 345.019,287.342 " style="fill:#477bbf;stroke:#2751ce;stroke-width:0" />
      <polygon id="polygon6010" points="139.493,481.044 154.312,487.361 138.435,459.989 " style="fill:#477bbf;stroke:#000000;stroke-width:0" />
      <polygon id="polygon6012" transform="rotate(180,340.05854,477.921)" points="333.23,470.552 347.937,464.235 332.18,491.607 " style="fill:#477bbf;stroke:#000000;stroke-width:0" />
      <polygon id="polygon6014" points="173.096,247.006 197.167,268.47 182.227,217.287 188.867,247.832 " style="fill:#477bbf;stroke:#000000;stroke-width:0" />
      <polygon id="polygon6016" transform="rotate(180,298.20394,239.57601)" points="288.546,232.332 307.862,213.159 297.153,265.993 299.995,234.169 " style="fill:#477bbf;stroke:#000000;stroke-width:0" />
      <polygon id="polygon6018" points="223.479,282.646 262.074,282.646 287.804,266.653 260.787,290.323 224.767,290.323 199.037,270.491 " style="fill:#477bbf;stroke:#000000;stroke-width:0" />
      <polygon id="polygon6020" points="242.778,237.224 249.209,235.305 269.793,243.622 251.782,247.46 235.701,247.46 216.405,242.982 236.988,234.665 " style="fill:#477bbf;stroke:#000000;stroke-width:0" />
      <polygon id="polygon6022" points="240.832,219.852 243.541,219.724 247.41,217.031 252.182,219.981 247.668,218.57 244.057,219.852 240.316,219.981 235.675,218.698 232.063,219.852 231.547,220.109 235.675,216.902 " style="fill:#477bbf;stroke:#000000;stroke-width:0" />
      <polygon id="polygon6024" points="154.289,104.799 320.723,104.799 340.631,123.807 327.093,152.32 356.557,221.225 312.759,237.065 303.999,210.137 312.759,186.376 311.963,149.944 276.128,115.095 205.255,115.887 167.827,157.072 166.234,195.088 176.586,217.265 168.623,237.065 117.658,227.561 153.493,157.072 137.566,126.183 " style="fill:#ffffff;stroke:#000000;stroke-width:0" />
      <polygon id="polygon6026" points="221.769,84.414 257.603,84.414 273.53,105.007 206.638,105.007 " style="fill:#fffefe;stroke:#000000;stroke-width:0" />
      <polygon id="polygon6028" points="158.763,410.631 176.076,393.877 133.028,398.996 124.137,413.423 127.412,435.762 140.983,456.705 " style="fill:#aed5ec;stroke:#000000;stroke-width:0" />
      <polygon id="polygon6030" points="251.882,327.325 262.645,351.061 248.139,372.469 235.037,346.407 240.184,335.237 221.467,318.018 209.301,286.836 204.153,284.509 213.512,326.395 212.575,345.476 228.486,355.249 235.037,377.588 243.459,384.104 241.588,389.688 200.41,397.135 228.017,403.65 255.626,403.65 238.78,434.832 251.882,463.686 266.388,439.486 256.094,418.077 264.048,398.996 314.584,390.154 256.094,385.965 255.626,377.123 278.086,340.357 267.324,301.263 " style="fill:#aed5ec;stroke:#000000;stroke-width:0" />
      <polygon id="polygon6032" points="357.635,396.669 367.462,408.77 355.295,440.416 331.43,393.877 " style="fill:#aed5ec;stroke:#000000;stroke-width:0" />
      <polygon id="polygon6034" points="257.029,278.924 264.516,273.805 249.074,256.12 239.248,256.12 226.146,272.874 228.017,278.924 " style="fill:#aed5ec;stroke:#000000;stroke-width:0" />
      <polygon id="polygon6036" points="249.52,214.436 249.017,164.897 256.815,156.64 254.803,149.134 247.255,144.881 235.684,144.881 228.39,149.385 224.363,156.14 234.93,165.397 235.181,214.936 242.225,218.439 " style="fill:#aed5ec;stroke:#000000;stroke-width:0" />
      <polygon id="polygon6038" transform="rotate(180,335.35053,312.73951)" points="367.827,338.657 314.352,341.382 302.874,284.097 " style="fill:#477bbf;stroke:#000000;stroke-width:0" />
      <polygon id="polygon6040" points="184.921,287.155 134.695,284.071 117.994,343.926 " style="fill:#477bbf;stroke:#000000;stroke-width:0" />
      <ellipse id="ellipse6042" style="fill:#477bbf" ry="57.436001" rx="66.095001" cy="303.27301" cx="414.24899" />
      <ellipse id="ellipse6044" style="fill:#477bbf" ry="57.436001" rx="66.095001" cy="303.27301" cx="75.412003" />
    </g>
  </g>
</svg>
